<?xml version="1.0" encoding="UTF-8" standalone="no"?> <svg xmlns="http://www.w3.org/2000/svg" viewBox="0 0 32 32"><defs><style>.cls-1{fill:#2d4a60;}.cls-2{fill:#ffd188;}.cls-3{fill:#e67244;}.cls-4{fill:#fd3730;}.cls-5{fill:#00b157;}.cls-6{fill:#eaeff0;}</style></defs><title>Recruitment</title><g id="Recruitment"><path class="cls-1" d="M18,17H14a9,9,0,0,0-9,9v1a3,3,0,0,0,3,3H24a3,3,0,0,0,3-3V26A9,9,0,0,0,18,17Z"/><circle class="cls-2" cx="16" cy="9" r="7"/><path class="cls-3" d="M9.156,7.534A8.98,8.98,0,0,0,12,8a8.955,8.955,0,0,0,6-2.3,8.975,8.975,0,0,0,4.909,2.231A6.995,6.995,0,0,0,9.156,7.534Z"/><path class="cls-4" d="M14,17l1,2-1.677,5.868a2,2,0,0,0,.509,1.964l1.461,1.461a1,1,0,0,0,1.414,0l1.461-1.461a2,2,0,0,0,.509-1.964L17,19l1-2Z"/><circle class="cls-5" cx="25" cy="24" r="6"/><path class="cls-6" d="M27,23H26V22a1,1,0,0,0-2,0v1H23a1,1,0,0,0,0,2h1v1a1,1,0,0,0,2,0V25h1a1,1,0,0,0,0-2Z"/></g></svg>