<?xml version="1.0" encoding="UTF-8" standalone="no"?> <svg xmlns="http://www.w3.org/2000/svg" viewBox="0 0 64 64"><defs><style>.cls-1{fill:#9e28b5;}</style></defs><g id="Layer_9" data-name="Layer 9"><path d="M32,18.38A13.62,13.62,0,1,0,45.62,32,13.64,13.64,0,0,0,32,18.38Zm0,25.24a11.62,11.62,0,0,1-8.31-3.51A8.67,8.67,0,0,1,32,34h0a8.67,8.67,0,0,1,8.29,6.13A11.62,11.62,0,0,1,32,43.62ZM28,28a4,4,0,1,1,4,4h0A4,4,0,0,1,28,28ZM41.76,38.29a10.68,10.68,0,0,0-6-5.64,6,6,0,1,0-7.48,0,10.68,10.68,0,0,0-6,5.64,11.62,11.62,0,1,1,19.52,0Z"/><path d="M32,7.07A24.93,24.93,0,1,0,56.93,32,25,25,0,0,0,32,7.07Zm0,47.86A22.93,22.93,0,1,1,54.93,32,23,23,0,0,1,32,54.93Z"/><path class="cls-1" d="M60,31H51.36A19.41,19.41,0,0,0,33,12.64V4a1,1,0,0,0-2,0v8.64A19.41,19.41,0,0,0,12.64,31H4a1,1,0,0,0,0,2h8.64A19.41,19.41,0,0,0,31,51.36V60a1,1,0,0,0,2,0V51.36A19.41,19.41,0,0,0,51.36,33H60a1,1,0,0,0,0-2ZM33,49.36v-.61a1,1,0,0,0-2,0v.61A17.42,17.42,0,0,1,14.64,33h.61a1,1,0,0,0,0-2h-.61A17.42,17.42,0,0,1,31,14.64v.61a1,1,0,0,0,2,0v-.61A17.42,17.42,0,0,1,49.36,31h-.61a1,1,0,0,0,0,2h.61A17.42,17.42,0,0,1,33,49.36Z"/></g></svg>