<?xml version="1.0" encoding="UTF-8" standalone="no"?> <svg id="Layer_1" data-name="Layer 1" xmlns="http://www.w3.org/2000/svg" viewBox="0 0 128 128"><defs><style>.cls-1{fill:#2d3e50;}.cls-2{fill:#1d75b8;}</style></defs><title>n</title><path class="cls-1" d="M40.1412,42.87127a4.13547,4.13547,0,0,0-2.229-3.00116c-3.87571-1.93326-12.38094-4.78821-12.38094-4.78821V32.27409l.23708-.1784a8.124,8.124,0,0,0,3.084-5.16455l.04834-.29809H29.132A3.13771,3.13771,0,0,0,32.03645,24.678a3.4066,3.4066,0,0,0,.427-1.65475,3.14249,3.14249,0,0,0-.22327-1.16458,1.62754,1.62754,0,0,0-.62946-1.01266l-.78482-.47644.1956-.85154C32.43808,13.33851,27.651,7.77352,21.22405,7.61927c-.1565-.00224-.31185-.00457-.46492-.00114-.15421-.00343-.30838-.0011-.46487.00114-6.4281.15426-11.21521,5.71924-9.7975,11.89873l.19564.85154-.78482.47644A1.62908,1.62908,0,0,0,9.277,21.85865a3.16658,3.16658,0,0,0-.22322,1.16458A3.42015,3.42015,0,0,0,9.48063,24.678a3.14067,3.14067,0,0,0,2.90567,1.95507h.23132l.0472.29809a8.121,8.121,0,0,0,3.08508,5.16455l.23708.1784v2.80781s-8.50519,2.855-12.38085,4.78821a4.13241,4.13241,0,0,0-2.229,3.00116A90.06348,90.06348,0,0,0,.59572,53.28552H40.9225A90.05511,90.05511,0,0,0,40.1412,42.87127Z"/><path class="cls-1" d="M54.09361,52.74249a9.119,9.119,0,0,1,2.77332-6.47872,9.07249,9.07249,0,0,1,12.91135.21865,8.726,8.726,0,0,1,2.60068,6.191l.05753.60994H84.16263A89.35842,89.35842,0,0,0,83.3801,42.869a4.11068,4.11068,0,0,0-2.23244-3.0034c-3.86647-1.93326-12.37051-4.78712-12.37051-4.78712V32.2707l.23017-.17264a8.12961,8.12961,0,0,0,3.084-5.16684l.046-.29923h.23017a3.13543,3.13543,0,0,0,2.91139-1.95626,3.41413,3.41413,0,0,0,.42577-1.65708,3.30682,3.30682,0,0,0-.21865-1.16221,1.65861,1.65861,0,0,0-.63294-1.01266l-.78249-.47187.19564-.85154c1.41543-6.17949-3.37174-11.74914-9.80436-11.89873-.14964,0-.31075-.01143-.46035,0-.14959-.01143-.31066,0-.47178,0-6.42119.14959-11.20826,5.71924-9.79288,11.89873l.19564.85154-.78253.47187a1.65915,1.65915,0,0,0-.63289,1.01266,3.06774,3.06774,0,0,0-.21865,1.16221,3.41413,3.41413,0,0,0,.42577,1.65708A3.11975,3.11975,0,0,0,55.6241,26.632h.23017l.05753.29923a8.12922,8.12922,0,0,0,3.084,5.16684l.23017.17264v2.80781s-8.504,2.85386-12.38208,4.78712A4.12477,4.12477,0,0,0,44.623,42.869a89.35429,89.35429,0,0,0-.78249,10.41434H54.09361Z"/><path class="cls-1" d="M126.623,42.87127a4.13252,4.13252,0,0,0-2.229-3.00116c-3.87571-1.93326-12.38085-4.78821-12.38085-4.78821V32.27409l.237-.1784a8.12067,8.12067,0,0,0,3.08513-5.16455l.0472-.29809h.23127a3.13776,3.13776,0,0,0,2.90448-1.95507,3.40761,3.40761,0,0,0,.4281-1.65475,3.14346,3.14346,0,0,0-.22441-1.16458,1.6225,1.6225,0,0,0-.62946-1.01266l-.78482-.47644.19569-.85154c1.41771-6.17949-3.37055-11.74448-9.7975-11.89873-.1565-.00224-.31066-.00457-.46492-.00114-.153-.00343-.30838-.0011-.46487.00114-6.4281.15426-11.21517,5.71924-9.79745,11.89873l.1956.85154-.78482.47644a1.62283,1.62283,0,0,0-.62942,1.01266,3.14346,3.14346,0,0,0-.22441,1.16458,3.40808,3.40808,0,0,0,.42806,1.65475,3.13781,3.13781,0,0,0,2.90448,1.95507h.23132l.04839.29809a8.12359,8.12359,0,0,0,3.084,5.16455l.237.1784v2.80781s-8.50514,2.855-12.38094,4.78821a4.13269,4.13269,0,0,0-2.229,3.00116,90.05929,90.05929,0,0,0-.78134,10.41425h40.32673A90.0551,90.0551,0,0,0,126.623,42.87127Z"/><path class="cls-2" d="M95.886,82.68566,69.77444,74.2364l-1.99331-21.348a4.24785,4.24785,0,0,0-1.2593-3.15222l-.052-.05223a4.50392,4.50392,0,0,0-7.7709,3.07315L58.5391,94.42168l-.32392,4.49854-6.81994-6.01047c-.20648-.20539-5.14063-5.04057-10.22565-1.91707l-.01024.00672a1.17341,1.17341,0,0,0-.30581,1.70848c3.249,4.26586,15.72684,19.909,15.72684,19.909A20.28526,20.28526,0,0,0,72.1862,120.2511l9.02841.13107a13.861,13.861,0,0,0,13.7805-11.11135L99.3914,87.49267A5.03878,5.03878,0,0,0,95.886,82.68566Z"/></svg>