<?xml version="1.0" encoding="UTF-8" standalone="no"?> <svg width="64" height="64" viewBox="0 0 64 64" fill="none" xmlns="http://www.w3.org/2000/svg">
<path d="M38.7002 9.74007H34.3102L33.0002 5.57007C32.9345 5.37001 32.8072 5.19581 32.6366 5.07231C32.4661 4.94881 32.2608 4.88232 32.0502 4.88232C31.8396 4.88232 31.6344 4.94881 31.4638 5.07231C31.2932 5.19581 31.166 5.37001 31.1002 5.57007L29.6902 9.74007H25.3002C25.0895 9.74142 24.8845 9.80934 24.7146 9.93412C24.5448 10.0589 24.4187 10.2342 24.3543 10.4349C24.29 10.6356 24.2908 10.8515 24.3565 11.0518C24.4222 11.2521 24.5495 11.4265 24.7202 11.5501L28.2702 14.1301L26.9102 18.3001C26.8442 18.5008 26.8434 18.7174 26.9081 18.9186C26.9728 19.1198 27.0996 19.2954 27.2702 19.4201C27.4415 19.5452 27.6481 19.6127 27.8602 19.6127C28.0724 19.6127 28.279 19.5452 28.4502 19.4201L32.0002 16.8401L35.5502 19.4201C35.7218 19.5443 35.9284 19.6108 36.1402 19.6101C36.3022 19.6181 36.4638 19.5867 36.6109 19.5184C36.758 19.4501 36.8864 19.347 36.9848 19.2181C37.0832 19.0891 37.1488 18.9382 37.1759 18.7783C37.203 18.6183 37.1907 18.4542 37.1402 18.3001L35.7802 14.1301L39.3302 11.5501C39.501 11.4265 39.6283 11.2521 39.694 11.0518C39.7597 10.8515 39.7605 10.6356 39.6961 10.4349C39.6318 10.2342 39.5057 10.0589 39.3358 9.93412C39.166 9.80934 38.961 9.74142 38.7502 9.74007H38.7002Z" fill="url(#paint0_linear)"/>
<path d="M18.0001 19.0801H15.3701L14.5601 16.5601C14.4968 16.3563 14.37 16.1781 14.1982 16.0515C14.0263 15.925 13.8185 15.8567 13.6051 15.8567C13.3917 15.8567 13.1839 15.925 13.0121 16.0515C12.8403 16.1781 12.7134 16.3563 12.6501 16.5601L11.8301 19.0801H9.18012C8.96935 19.0814 8.76439 19.1493 8.59452 19.2741C8.42464 19.3989 8.29854 19.5742 8.23422 19.7749C8.1699 19.9756 8.17065 20.1915 8.23636 20.3918C8.30207 20.5921 8.42939 20.7665 8.60012 20.8901L10.7401 22.4501L9.92012 25.0001C9.85407 25.2009 9.85332 25.4174 9.918 25.6186C9.98268 25.8198 10.1095 25.9954 10.2801 26.1201C10.4514 26.2452 10.658 26.3127 10.8701 26.3127C11.0822 26.3127 11.2889 26.2452 11.4601 26.1201L13.6001 24.5601L15.7501 26.1201C15.9204 26.2429 16.1251 26.3091 16.3351 26.3091C16.5451 26.3091 16.7498 26.2429 16.9201 26.1201C17.0926 25.9967 17.2213 25.8218 17.2878 25.6204C17.3543 25.4191 17.3551 25.2019 17.2901 25.0001L16.4701 22.4801L18.6101 20.9201C18.7902 20.7983 18.9257 20.6211 18.9961 20.4154C19.0665 20.2097 19.0679 19.9867 19.0001 19.7801C18.9341 19.5694 18.8002 19.3864 18.6193 19.2598C18.4384 19.1332 18.2207 19.07 18.0001 19.0801Z" fill="url(#paint1_linear)"/>
<path d="M55.7702 19.7801C55.7042 19.5694 55.5703 19.3864 55.3894 19.2598C55.2085 19.1332 54.9908 19.07 54.7702 19.0801H52.1702L51.3502 16.5601C51.2869 16.3563 51.1601 16.1781 50.9882 16.0515C50.8164 15.925 50.6086 15.8567 50.3952 15.8567C50.1818 15.8567 49.974 15.925 49.8022 16.0515C49.6303 16.1781 49.5035 16.3563 49.4402 16.5601L48.6302 19.0801H46.0002C45.7796 19.07 45.5619 19.1332 45.381 19.2598C45.2001 19.3864 45.0662 19.5694 45.0002 19.7801C44.9375 19.9805 44.9395 20.1956 45.0059 20.3948C45.0723 20.5941 45.1998 20.7674 45.3702 20.8901L47.5102 22.4501L46.7102 25.0001C46.6452 25.2019 46.646 25.4191 46.7125 25.6204C46.779 25.8218 46.9078 25.9967 47.0802 26.1201C47.2505 26.2429 47.4552 26.3091 47.6652 26.3091C47.8752 26.3091 48.0799 26.2429 48.2502 26.1201L50.4002 24.5601L52.5402 26.1201C52.7118 26.2443 52.9184 26.3108 53.1302 26.3101C53.288 26.31 53.4436 26.2725 53.5842 26.2007C53.7247 26.129 53.8463 26.0249 53.939 25.8972C54.0317 25.7694 54.0928 25.6215 54.1173 25.4656C54.1418 25.3097 54.1291 25.1501 54.0802 25.0001L53.2602 22.4801L55.4002 20.9201C55.5767 20.7955 55.7082 20.6172 55.7749 20.4117C55.8416 20.2062 55.8399 19.9846 55.7702 19.7801Z" fill="url(#paint2_linear)"/>
<path d="M54.3002 34.33L32.5802 23.33C32.5802 23.33 32.5802 23.33 32.5102 23.33L32.3102 23.27H32.1302H31.9402C31.8755 23.2854 31.812 23.3055 31.7502 23.33C31.7502 23.33 31.7002 23.33 31.6802 23.33L10.0002 34.33C9.83382 34.413 9.69383 34.5406 9.59598 34.6987C9.49813 34.8568 9.44629 35.0391 9.44629 35.225C9.44629 35.4109 9.49813 35.5932 9.59598 35.7513C9.69383 35.9094 9.83382 36.0371 10.0002 36.12L19.1202 40.73V52.05C19.1202 52.1 19.1202 52.14 19.1202 52.19C19.1273 52.262 19.1441 52.3326 19.1702 52.4C19.1942 52.4565 19.2244 52.5102 19.2602 52.56C19.2876 52.6169 19.3211 52.6705 19.3602 52.72C19.4125 52.7688 19.4694 52.8124 19.5302 52.85C19.5644 52.883 19.6012 52.9131 19.6402 52.94L31.6402 59.02H31.7602H31.8402C31.9233 59.0296 32.0072 59.0296 32.0902 59.02C32.1733 59.0296 32.2572 59.0296 32.3402 59.02H32.4202H32.5402L44.3402 53.02C44.3793 52.9931 44.4161 52.963 44.4502 52.93C44.511 52.8924 44.568 52.8488 44.6202 52.8C44.6593 52.7505 44.6929 52.6969 44.7202 52.64C44.756 52.5902 44.7862 52.5365 44.8102 52.48C44.8195 52.4103 44.8195 52.3397 44.8102 52.27C44.8102 52.22 44.8102 52.18 44.8102 52.13V40.86L54.1902 36.12C54.3566 36.0371 54.4966 35.9094 54.5945 35.7513C54.6923 35.5932 54.7442 35.4109 54.7442 35.225C54.7442 35.0391 54.6923 34.8568 54.5945 34.6987C54.4966 34.5406 54.3566 34.413 54.1902 34.33H54.3002Z" fill="url(#paint3_linear)"/>
<path d="M54.3002 34.33L32.5802 23.33C32.5802 23.33 32.5802 23.33 32.5102 23.33L32.3102 23.27H32.1302H31.9402C31.8755 23.2854 31.812 23.3055 31.7502 23.33C31.7502 23.33 31.7002 23.33 31.6802 23.33L10.0002 34.33C9.83382 34.413 9.69383 34.5406 9.59598 34.6987C9.49813 34.8568 9.44629 35.0391 9.44629 35.225C9.44629 35.4109 9.49813 35.5932 9.59598 35.7513C9.69383 35.9094 9.83382 36.0371 10.0002 36.12L31.7202 47.12H31.8402H31.9202C32.0032 47.1305 32.0872 47.1305 32.1702 47.12C32.2533 47.1298 32.3372 47.1298 32.4202 47.12H32.5002H32.6202L54.3402 36.12C54.5066 36.0371 54.6466 35.9094 54.7445 35.7513C54.8423 35.5932 54.8942 35.4109 54.8942 35.225C54.8942 35.0391 54.8423 34.8568 54.7445 34.6987C54.6466 34.5406 54.5066 34.413 54.3402 34.33H54.3002Z" fill="url(#paint4_linear)"/>
<path d="M32.1302 34.22H12.0002C11.735 34.22 11.4806 34.3253 11.2931 34.5129C11.1055 34.7004 11.0002 34.9548 11.0002 35.22V44.49C10.3805 44.724 9.86257 45.1681 9.53659 45.7447C9.2106 46.3213 9.09722 46.994 9.21619 47.6457C9.33515 48.2973 9.67893 48.8866 10.1876 49.3108C10.6964 49.735 11.3378 49.9674 12.0002 49.9674C12.6626 49.9674 13.304 49.735 13.8127 49.3108C14.3214 48.8866 14.6652 48.2973 14.7842 47.6457C14.9031 46.994 14.7897 46.3213 14.4638 45.7447C14.1378 45.1681 13.6198 44.724 13.0002 44.49V36.22H32.1302C32.3954 36.22 32.6497 36.1146 32.8373 35.9271C33.0248 35.7395 33.1302 35.4852 33.1302 35.22C33.1302 34.9548 33.0248 34.7004 32.8373 34.5129C32.6497 34.3253 32.3954 34.22 32.1302 34.22Z" fill="url(#paint5_linear)"/>
<path d="M27.4001 28.08C25.7001 26.19 20.9701 32.35 22.4001 33.78C24.0701 35.68 28.8001 29.51 27.4001 28.08Z" fill="white"/>
<path d="M19.6802 36.7901C18.2902 38.7901 19.3002 40.5001 20.9702 38.0901C22.3602 36.0601 21.3402 34.3801 19.6802 36.7901Z" fill="white"/>
<defs>
<linearGradient id="paint0_linear" x1="24.3002" y1="12.2401" x2="39.7002" y2="12.2401" gradientUnits="userSpaceOnUse">
<stop stop-color="#418607"/>
<stop offset="0.91" stop-color="#206507"/>
<stop offset="1" stop-color="#1D6207"/>
</linearGradient>
<linearGradient id="paint1_linear" x1="97.0491" y1="236.269" x2="214.808" y2="236.269" gradientUnits="userSpaceOnUse">
<stop stop-color="#418607"/>
<stop offset="0.91" stop-color="#206507"/>
<stop offset="1" stop-color="#1D6207"/>
</linearGradient>
<linearGradient id="paint2_linear" x1="533.849" y1="236.214" x2="651.671" y2="236.214" gradientUnits="userSpaceOnUse">
<stop stop-color="#418607"/>
<stop offset="0.91" stop-color="#206507"/>
<stop offset="1" stop-color="#1D6207"/>
</linearGradient>
<linearGradient id="paint3_linear" x1="435.699" y1="1496.11" x2="2493.58" y2="1496.11" gradientUnits="userSpaceOnUse">
<stop stop-color="#418607"/>
<stop offset="0.91" stop-color="#206507"/>
<stop offset="1" stop-color="#1D6207"/>
</linearGradient>
<linearGradient id="paint4_linear" x1="9.41022" y1="35.23" x2="54.8402" y2="35.23" gradientUnits="userSpaceOnUse">
<stop stop-color="#B7D389"/>
<stop offset="0.22" stop-color="#A1C571"/>
<stop offset="0.69" stop-color="#69A134"/>
<stop offset="1" stop-color="#418808"/>
</linearGradient>
<linearGradient id="paint5_linear" x1="228.644" y1="697.029" x2="802.965" y2="697.029" gradientUnits="userSpaceOnUse">
<stop stop-color="#418607"/>
<stop offset="0.91" stop-color="#206507"/>
<stop offset="1" stop-color="#1D6207"/>
</linearGradient>
</defs>
</svg>
