<?xml version="1.0" encoding="UTF-8" standalone="no"?> <svg id="Layer_1" data-name="Layer 1" xmlns="http://www.w3.org/2000/svg" xmlns:xlink="http://www.w3.org/1999/xlink" viewBox="0 0 64 64"><defs><style>.cls-1{fill:url(#linear-gradient);}.cls-2{fill:url(#linear-gradient-2);}.cls-3{fill:url(#linear-gradient-3);}.cls-4{fill:url(#linear-gradient-4);}.cls-5{fill:url(#linear-gradient-5);}</style><linearGradient id="linear-gradient" x1="44.27" y1="2.41" x2="8.6" y2="40.41" gradientUnits="userSpaceOnUse"><stop offset="0" stop-color="#15b3ff"/><stop offset="1" stop-color="#e200e9"/></linearGradient><linearGradient id="linear-gradient-2" x1="44.26" y1="2.4" x2="8.6" y2="40.4" xlink:href="#linear-gradient"/><linearGradient id="linear-gradient-3" x1="58.01" y1="15.31" x2="22.34" y2="53.31" xlink:href="#linear-gradient"/><linearGradient id="linear-gradient-4" x1="60.31" y1="17.46" x2="24.64" y2="55.46" xlink:href="#linear-gradient"/><linearGradient id="linear-gradient-5" x1="69.62" y1="26.2" x2="33.95" y2="64.2" xlink:href="#linear-gradient"/></defs><title>search</title><path class="cls-1" d="M37.43,10.57A19,19,0,0,0,6.89,15.73,19.19,19.19,0,0,0,17.35,41.8a19.17,19.17,0,0,0,18.63-3,.1.1,0,0,1,.05,0h0l.24-.2a13.84,13.84,0,0,0,1.16-1.07A15.78,15.78,0,0,0,38.7,36,19.16,19.16,0,0,0,37.43,10.57ZM24,39a15,15,0,0,1-9.54-26.57A15,15,0,0,1,38.72,26.89,15.15,15.15,0,0,1,24,39Z"/><path class="cls-2" d="M37,24a13,13,0,0,1-23,8.33,13,13,0,0,1,12.43-21.1A13.14,13.14,0,0,1,37,24Z"/><path class="cls-3" d="M36,38.7h0l.24-.21Z"/><path class="cls-4" d="M41,39.59,39.59,41l-1.46-1.47c.24-.21.47-.44.72-.68s.47-.48.68-.72Z"/><path class="cls-5" d="M56.9,54.07,54.07,56.9a2,2,0,0,1-2.82,0L40.29,46a2,2,0,0,1,0-2.83l2.82-2.83,0,0a2,2,0,0,1,2.81,0l10.95,11A2,2,0,0,1,56.9,54.07Z"/><path class="cls-5" d="M56.9,54.07,54.07,56.9a2,2,0,0,1-2.82,0L40.29,46a2,2,0,0,1,0-2.83l2.82-2.83,0,0a2,2,0,0,1,2.81,0l10.95,11A2,2,0,0,1,56.9,54.07Z"/></svg>