<?xml version="1.0" encoding="UTF-8" standalone="no"?> <svg id="Layer_1" data-name="Layer 1" xmlns="http://www.w3.org/2000/svg" xmlns:xlink="http://www.w3.org/1999/xlink" viewBox="0 0 64 64"><defs><style>.cls-1{fill:url(#linear-gradient);}.cls-2{fill:url(#linear-gradient-2);}.cls-3{fill:url(#linear-gradient-3);}.cls-4{fill:url(#linear-gradient-4);}.cls-5{fill:url(#linear-gradient-5);}</style><linearGradient id="linear-gradient" x1="61.14" y1="14.51" x2="14.47" y2="50.84" gradientUnits="userSpaceOnUse"><stop offset="0" stop-color="#15b3ff"/><stop offset="1" stop-color="#e200e9"/></linearGradient><linearGradient id="linear-gradient-2" x1="64.6" y1="18.95" x2="17.93" y2="55.29" xlink:href="#linear-gradient"/><linearGradient id="linear-gradient-3" x1="54.75" y1="6.31" x2="8.09" y2="42.64" xlink:href="#linear-gradient"/><linearGradient id="linear-gradient-4" x1="67.9" y1="23.19" x2="21.23" y2="59.52" xlink:href="#linear-gradient"/><linearGradient id="linear-gradient-5" x1="73.28" y1="30.1" x2="26.61" y2="66.44" xlink:href="#linear-gradient"/></defs><title>cap</title><path class="cls-1" d="M49,29V42a7,7,0,0,1-7,7H22a7,7,0,0,1-7-7V29l16.61,7a1.05,1.05,0,0,0,.78,0Z"/><path class="cls-2" d="M59,23.83a.14.14,0,0,0,0-.07.72.72,0,0,0-.09-.2,1,1,0,0,1-.08-.11,1.23,1.23,0,0,0-.33-.26l-.08,0a1,1,0,0,0-1.36.93V25.6L58.39,25a1,1,0,0,0,.61-.89v0A.73.73,0,0,0,59,23.83Z"/><polygon class="cls-3" points="55.6 24.02 49.61 26.55 32 33.98 14.39 26.55 8.4 24.02 32 12.36 55.6 24.02"/><path class="cls-4" d="M59,24.08v14.1a2.87,2.87,0,0,0-2,0V24.08a1,1,0,0,1,1.36-.93l.08,0a1.23,1.23,0,0,1,.33.26,1,1,0,0,0,.08.11.72.72,0,0,1,.09.2.14.14,0,0,1,0,.07A.73.73,0,0,1,59,24.08Z"/><path class="cls-5" d="M59,41v2a1,1,0,0,1-2,0V41A1,1,0,0,1,59,41Z"/></svg>