<?xml version="1.0" encoding="utf-8"?>
<!-- Generator: Adobe Illustrator 25.2.3, SVG Export Plug-In . SVG Version: 6.00 Build 0)  -->
<svg version="1.1" id="Layer_3" xmlns="http://www.w3.org/2000/svg" xmlns:xlink="http://www.w3.org/1999/xlink" x="0px" y="0px"
	 viewBox="0 0 64 64" style="enable-background:new 0 0 64 64;" xml:space="preserve">
<style type="text/css">
	.st0{fill:#EEEEEE;}
	.st1{fill:#E0E0E0;}
	.st2{fill:#FFFFFF;}
	.st3{fill:#3477CC;}
	.st4{fill:#F9F9F9;}
	.st5{fill:#BDBDBD;}
	.st6{fill:#D4483F;}
	.st7{fill:#B73831;}
	.st8{fill:#EEAB46;}
	.st9{fill:#F3C14F;}
	.st10{fill:#2B66BA;}
	.st11{fill:#F2F2F2;}
	.st12{fill:#BCE4F8;}
	.st13{fill:#E4F5FD;}
	.st14{fill:#F8DA95;}
	.st15{fill:#3E89DE;}
	.st16{fill:#939393;}
	.st17{fill:#CCCCCC;}
	.st18{fill:#DE5E57;}
	.st19{fill:#F9EBD2;}
	.st20{fill:#F7DFB6;}
</style>
<g>
	<path class="st10" d="M18,2C11.9,2,7,6.9,7,13s4.9,11,11,11c1.2,0,2.4-0.2,3.4-0.6L24,26v-3.8c3-2,5-5.4,5-9.2C29,6.9,24.1,2,18,2z
		"/>
	<path class="st3" d="M18,2C11.9,2,7,6.9,7,13c0,2.2,0.7,4.3,1.8,6H20c2.8,0,5-2.2,5-5V4.5C23.1,2.9,20.7,2,18,2z"/>
	<path class="st15" d="M20,16h-6c-1.1,0-2-0.9-2-2V8c0-1.1,0.9-2,2-2h6c1.1,0,2,0.9,2,2v6C22,15.1,21.1,16,20,16z"/>
	<path class="st7" d="M46,2c6.1,0,11,4.9,11,11s-4.9,11-11,11c-1.2,0-2.4-0.2-3.4-0.6L40,26v-3.8c-3-2-5-5.4-5-9.2
		C35,6.9,39.9,2,46,2z"/>
	<path class="st6" d="M46,2c-6.1,0-11,4.9-11,11c0,2.2,0.7,4.3,1.8,6H48c2.8,0,5-2.2,5-5V4.5C51.1,2.9,48.7,2,46,2z"/>
	<path class="st18" d="M48,16h-6c-1.1,0-2-0.9-2-2V8c0-1.1,0.9-2,2-2h6c1.1,0,2,0.9,2,2v6C50,15.1,49.1,16,48,16z"/>
	<path class="st2" d="M18,6c-2.2,0-4,1.8-4,4v9h2v-3h4v3h2v-9C22,7.8,20.2,6,18,6z M16,14v-4c0-1.1,0.9-2,2-2s2,0.9,2,2v4H16z"/>
	<path class="st2" d="M52,10V8h-5V6h-2v2h-5v2h2.1c0.2,2.2,1.1,4.3,2.5,5.9c-0.1,0.1-0.1,0.1-0.2,0.2l-2.9,2.1l1.2,1.6l2.9-2.1
		c0.2-0.1,0.3-0.3,0.5-0.4c0.2,0.1,0.3,0.3,0.5,0.4l2.9,2.1l1.2-1.6l-2.9-2.1c-0.1-0.1-0.1-0.1-0.2-0.2c1.4-1.7,2.3-3.7,2.5-5.9H52z
		 M46,14.5c-1.1-1.3-1.7-2.9-1.9-4.5h3.9C47.7,11.7,47.1,13.2,46,14.5z"/>
	<path class="st3" d="M4,42h48c2.2,0,4-1.8,4-4v0c0-2.2-1.8-4-4-4H4v-4h48c4.4,0,8,3.6,8,8v0c0,4.4-3.6,8-8,8H4V42z"/>
	<path class="st1" d="M6,42c0,0,0-8,0-8h46c2.2,0,4,1.8,4,4v0c0,2.2-1.8,4-4,4H6z"/>
	<path class="st4" d="M6,42h46c2.2,0,4-1.8,4-4H6V42z"/>
	<path class="st6" d="M60,50H12c-2.2,0-4,1.8-4,4v0c0,2.2,1.8,4,4,4h48v4H12c-4.4,0-8-3.6-8-8v0c0-4.4,3.6-8,8-8h48V50z"/>
	<path class="st1" d="M58,50c0,0,0,8,0,8H12c-2.2,0-4-1.8-4-4v0c0-2.2,1.8-4,4-4H58z"/>
	<path class="st4" d="M58,50H12c-2.2,0-4,1.8-4,4h50V50z"/>
</g>
</svg>
