<?xml version="1.0" encoding="UTF-8" standalone="no"?> <svg id="Layer_1" data-name="Layer 1" xmlns="http://www.w3.org/2000/svg" xmlns:xlink="http://www.w3.org/1999/xlink" viewBox="0 0 64 64"><defs><style>.cls-1{fill:url(#linear-gradient);}.cls-2{fill:url(#linear-gradient-2);}.cls-3{fill:url(#linear-gradient-3);}.cls-4{fill:url(#linear-gradient-4);}.cls-5{fill:url(#linear-gradient-5);}</style><linearGradient id="linear-gradient" x1="63.49" y1="18" x2="21.83" y2="60.34" gradientUnits="userSpaceOnUse"><stop offset="0" stop-color="#15b3ff"/><stop offset="1" stop-color="#e200e9"/></linearGradient><linearGradient id="linear-gradient-2" x1="50.49" y1="5.21" x2="8.83" y2="47.54" xlink:href="#linear-gradient"/><linearGradient id="linear-gradient-3" x1="63.11" y1="17.63" x2="21.44" y2="59.96" xlink:href="#linear-gradient"/><linearGradient id="linear-gradient-4" x1="58.99" y1="13.58" x2="17.33" y2="55.91" xlink:href="#linear-gradient"/><linearGradient id="linear-gradient-5" x1="42.99" y1="-2.17" x2="1.33" y2="40.16" xlink:href="#linear-gradient"/></defs><title>microscope</title><rect class="cls-1" x="12" y="48" width="40" height="4"/><rect class="cls-2" x="28" y="13" width="8" height="22"/><path class="cls-3" d="M54,40v7a1,1,0,0,0-1-1H52V40A15,15,0,0,0,38,25V23A17,17,0,0,1,54,40Z"/><path class="cls-4" d="M36,42H28a1,1,0,0,1,0-2h8A1,1,0,0,1,36,42Z"/><path class="cls-5" d="M40,9a2,2,0,0,1-2,2H26c-2.57,0-2.58-4,0-4H38A2,2,0,0,1,40,9Z"/><path class="cls-5" d="M40,9a2,2,0,0,1-2,2H26c-2.57,0-2.58-4,0-4H38A2,2,0,0,1,40,9Z"/></svg>