<?xml version="1.0" encoding="UTF-8" standalone="no"?> <svg id="Layer_1" data-name="Layer 1" xmlns="http://www.w3.org/2000/svg" xmlns:xlink="http://www.w3.org/1999/xlink" viewBox="0 0 64 64"><defs><style>.cls-1{fill:url(#linear-gradient);}.cls-2{fill:url(#linear-gradient-2);}.cls-3{fill:url(#linear-gradient-3);}.cls-4{fill:url(#linear-gradient-4);}.cls-5{fill:url(#linear-gradient-5);}.cls-6{fill:url(#linear-gradient-6);}.cls-7{fill:url(#linear-gradient-7);}.cls-8{fill:url(#linear-gradient-8);}.cls-9{fill:url(#linear-gradient-9);}.cls-10{fill:url(#linear-gradient-10);}.cls-11{fill:url(#linear-gradient-11);}</style><linearGradient id="linear-gradient" x1="62.7" y1="14.98" x2="11.03" y2="53.32" gradientUnits="userSpaceOnUse"><stop offset="0" stop-color="#15b3ff"/><stop offset="1" stop-color="#e200e9"/></linearGradient><linearGradient id="linear-gradient-2" x1="53.84" y1="3.04" x2="2.17" y2="41.37" xlink:href="#linear-gradient"/><linearGradient id="linear-gradient-3" x1="50.38" y1="-1.62" x2="-1.29" y2="36.71" xlink:href="#linear-gradient"/><linearGradient id="linear-gradient-4" x1="45.41" y1="-8.32" x2="-6.26" y2="30.01" xlink:href="#linear-gradient"/><linearGradient id="linear-gradient-5" x1="55.35" y1="5.08" x2="3.68" y2="43.41" xlink:href="#linear-gradient"/><linearGradient id="linear-gradient-6" x1="59.94" y1="11.27" x2="8.27" y2="49.6" xlink:href="#linear-gradient"/><linearGradient id="linear-gradient-7" x1="65.68" y1="19.01" x2="14.02" y2="57.34" xlink:href="#linear-gradient"/><linearGradient id="linear-gradient-8" x1="64.91" y1="17.97" x2="13.25" y2="56.3" xlink:href="#linear-gradient"/><linearGradient id="linear-gradient-9" x1="70.65" y1="25.71" x2="18.99" y2="64.04" xlink:href="#linear-gradient"/><linearGradient id="linear-gradient-10" x1="54.97" y1="4.57" x2="3.3" y2="42.9" xlink:href="#linear-gradient"/><linearGradient id="linear-gradient-11" x1="60.71" y1="12.31" x2="9.05" y2="50.64" xlink:href="#linear-gradient"/></defs><title>calendar</title><path class="cls-1" d="M5,25V48a5,5,0,0,0,5,5H54a5,5,0,0,0,5-5V25ZM22,47a1,1,0,0,1-1,1H15a1,1,0,0,1-1-1V41a1,1,0,0,1,1-1h6a1,1,0,0,1,1,1Zm0-12a1,1,0,0,1-1,1H15a1,1,0,0,1-1-1V29a1,1,0,0,1,1-1h6a1,1,0,0,1,1,1ZM36,47a1,1,0,0,1-1,1H29a1,1,0,0,1-1-1V41a1,1,0,0,1,1-1h6a1,1,0,0,1,1,1Zm0-12a1,1,0,0,1-1,1H29a1,1,0,0,1-1-1V29a1,1,0,0,1,1-1h6a1,1,0,0,1,1,1ZM50,47a1,1,0,0,1-1,1H43a1,1,0,0,1-1-1V41a1,1,0,0,1,1-1h6a1,1,0,0,1,1,1Zm0-12a1,1,0,0,1-1,1H43a1,1,0,0,1-1-1V29a1,1,0,0,1,1-1h6a1,1,0,0,1,1,1Z"/><path class="cls-2" d="M59,18v5H5V18a5,5,0,0,1,5-5h3v1a5,5,0,0,0,10,0V13h4v1a5,5,0,0,0,10,0V13h4v1a5,5,0,0,0,10,0V13h3A5,5,0,0,1,59,18Z"/><path class="cls-3" d="M35,10v4c0,3.86-6,3.87-6,0V10a3,3,0,1,1,6,0Z"/><path class="cls-4" d="M21,10v4c0,3.86-6,3.87-6,0V10a3,3,0,1,1,6,0Z"/><path class="cls-5" d="M49,10v4c0,3.86-6,3.87-6,0V10a3,3,0,1,1,6,0Z"/><rect class="cls-6" x="30" y="30" width="4" height="4"/><rect class="cls-7" x="30" y="42" width="4" height="4"/><rect class="cls-8" x="44" y="30" width="4" height="4"/><rect class="cls-9" x="44" y="42" width="4" height="4"/><rect class="cls-10" x="16" y="30" width="4" height="4"/><rect class="cls-11" x="16" y="42" width="4" height="4"/></svg>