<?xml version="1.0" encoding="UTF-8" standalone="no"?> <svg id="_1_-_10" data-name="1 - 10" xmlns="http://www.w3.org/2000/svg" viewBox="0 0 48 48"><defs><style>.cls-1{fill:#263f52;}.cls-2{fill:#8fa5a5;}.cls-3{fill:#7b8c8c;}.cls-4{fill:#fac100;}.cls-5{fill:#ff9500;}.cls-6{fill:#2d4a60;}</style></defs><title>Graduate</title><g id="Graduate"><path class="cls-1" d="M38,19H10a1,1,0,0,0-1,1V33.313a4.952,4.952,0,0,0,2.4,4.275,24.964,24.964,0,0,0,25.2,0A4.952,4.952,0,0,0,39,33.313V20A1,1,0,0,0,38,19Z"/><path class="cls-2" d="M43,29a1,1,0,0,1-1-1V19a1,1,0,0,1,2,0v9A1,1,0,0,1,43,29Z"/><path class="cls-3" d="M43,18a1,1,0,0,0-1,1v5.642l2-.846V19A1,1,0,0,0,43,18Z"/><path class="cls-4" d="M43,31a2.5,2.5,0,0,0-2.5,2.5V36a1,1,0,0,0,1,1h3a1,1,0,0,0,1-1V33.5A2.5,2.5,0,0,0,43,31Z"/><path class="cls-5" d="M41.5,34V32.5a2.474,2.474,0,0,1,.313-1.187A2.493,2.493,0,0,0,40.5,33.5V36a1,1,0,0,0,1,1h3a1,1,0,0,0,1-1h-2A2,2,0,0,1,41.5,34Z"/><circle class="cls-4" cx="43" cy="29.5" r="2.5"/><path class="cls-5" d="M44,31a2.5,2.5,0,0,1-2.5-2.5,2.471,2.471,0,0,1,.313-1.187,2.492,2.492,0,1,0,3.374,3.374A2.471,2.471,0,0,1,44,31Z"/><path class="cls-6" d="M46.036,15.237l-20.088-8.5a5.029,5.029,0,0,0-3.9,0l-20.088,8.5a3,3,0,0,0,0,5.526l20.088,8.5a5.024,5.024,0,0,0,3.9,0l20.088-8.5a3,3,0,0,0,0-5.526Z"/></g></svg>