<?xml version="1.0" encoding="UTF-8" standalone="no"?> <svg id="Layer_1" data-name="Layer 1" xmlns="http://www.w3.org/2000/svg" xmlns:xlink="http://www.w3.org/1999/xlink" viewBox="0 0 64 64"><defs><style>.cls-1{fill:url(#linear-gradient);}.cls-2{fill:url(#linear-gradient-2);}.cls-3{fill:url(#linear-gradient-4);}.cls-4{fill:url(#linear-gradient-5);}.cls-5{fill:url(#linear-gradient-6);}.cls-6{fill:url(#linear-gradient-7);}</style><linearGradient id="linear-gradient" x1="56.16" y1="10.16" x2="9.16" y2="58.49" gradientUnits="userSpaceOnUse"><stop offset="0" stop-color="#15b3ff"/><stop offset="1" stop-color="#e200e9"/></linearGradient><linearGradient id="linear-gradient-2" x1="63.66" y1="17.45" x2="16.66" y2="65.78" xlink:href="#linear-gradient"/><linearGradient id="linear-gradient-4" x1="64.38" y1="18.15" x2="17.38" y2="66.49" xlink:href="#linear-gradient"/><linearGradient id="linear-gradient-5" x1="71.88" y1="25.44" x2="24.88" y2="73.78" xlink:href="#linear-gradient"/><linearGradient id="linear-gradient-6" x1="47.94" y1="2.16" x2="0.94" y2="50.49" xlink:href="#linear-gradient"/><linearGradient id="linear-gradient-7" x1="55.43" y1="9.45" x2="8.43" y2="57.78" xlink:href="#linear-gradient"/></defs><title>book_3</title><path class="cls-1" d="M25,11V59H39V11Zm4,6h6a1,1,0,0,1,0,2H29A1,1,0,0,1,29,17Zm0,6h6a1,1,0,0,1,0,2H29A1,1,0,0,1,29,23Zm0,6h6a1,1,0,0,1,0,2H29A1,1,0,0,1,29,29Zm3,26a5,5,0,1,1,5-5A5.05,5.05,0,0,1,32,55Z"/><path class="cls-2" d="M35,50c0,3.87-6,3.86-6,0S35,46.13,35,50Z"/><path class="cls-2" d="M35,50c0,3.87-6,3.86-6,0S35,46.13,35,50Z"/><path class="cls-3" d="M41,11V59H55V11Zm4,6h6a1,1,0,0,1,0,2H45A1,1,0,0,1,45,17Zm0,6h6a1,1,0,0,1,0,2H45A1,1,0,0,1,45,23Zm0,6h6a1,1,0,0,1,0,2H45A1,1,0,0,1,45,29Zm3,26a5,5,0,1,1,5-5A5.05,5.05,0,0,1,48,55Z"/><path class="cls-4" d="M51,50c0,3.87-6,3.86-6,0S51,46.13,51,50Z"/><path class="cls-5" d="M9,11V59H23V11Zm4,6h6a1,1,0,0,1,0,2H13A1,1,0,0,1,13,17Zm0,6h6a1,1,0,0,1,0,2H13A1,1,0,0,1,13,23Zm0,6h6a1,1,0,0,1,0,2H13A1,1,0,0,1,13,29Zm3,26a5,5,0,1,1,5-5A5.05,5.05,0,0,1,16,55Z"/><path class="cls-6" d="M19,50c0,3.87-6,3.86-6,0S19,46.13,19,50Z"/></svg>