<?xml version="1.0" encoding="UTF-8" standalone="no"?> <svg width="64" height="64" viewBox="0 0 64 64" fill="none" xmlns="http://www.w3.org/2000/svg">
<path d="M23.8999 21H30.2599C30.5251 21 30.7795 20.8946 30.967 20.7071C31.1545 20.5196 31.2599 20.2652 31.2599 20C31.2599 19.7348 31.1545 19.4804 30.967 19.2929C30.7795 19.1054 30.5251 19 30.2599 19H23.8999C23.6347 19 23.3803 19.1054 23.1928 19.2929C23.0053 19.4804 22.8999 19.7348 22.8999 20C22.8999 20.2652 23.0053 20.5196 23.1928 20.7071C23.3803 20.8946 23.6347 21 23.8999 21Z" fill="#85837D"/>
<path d="M55.77 19H49.34C49.0748 19 48.8204 19.1054 48.6329 19.2929C48.4453 19.4804 48.34 19.7348 48.34 20C48.34 20.2652 48.4453 20.5196 48.6329 20.7071C48.8204 20.8946 49.0748 21 49.34 21H54.77V50.2H12.11V21H17.54C17.8052 21 18.0596 20.8946 18.2471 20.7071C18.4346 20.5196 18.54 20.2652 18.54 20C18.54 19.7348 18.4346 19.4804 18.2471 19.2929C18.0596 19.1054 17.8052 19 17.54 19H11.11C10.8448 19 10.5904 19.1054 10.4029 19.2929C10.2153 19.4804 10.11 19.7348 10.11 20V51.2C10.11 51.4652 10.2153 51.7196 10.4029 51.9071C10.5904 52.0946 10.8448 52.2 11.11 52.2H55.77C56.0352 52.2 56.2896 52.0946 56.4771 51.9071C56.6646 51.7196 56.77 51.4652 56.77 51.2V20C56.77 19.7348 56.6646 19.4804 56.4771 19.2929C56.2896 19.1054 56.0352 19 55.77 19Z" fill="#85837D"/>
<path d="M36.62 21H43C43.2652 21 43.5196 20.8946 43.7071 20.7071C43.8946 20.5196 44 20.2652 44 20C44 19.7348 43.8946 19.4804 43.7071 19.2929C43.5196 19.1054 43.2652 19 43 19H36.62C36.3548 19 36.1004 19.1054 35.9129 19.2929C35.7254 19.4804 35.62 19.7348 35.62 20C35.62 20.2652 35.7254 20.5196 35.9129 20.7071C36.1004 20.8946 36.3548 21 36.62 21Z" fill="#85837D"/>
<path d="M61.4399 55.08H59.8399V51.2C59.8399 50.9347 59.7346 50.6804 59.5471 50.4928C59.3595 50.3053 59.1052 50.2 58.8399 50.2H7.99994C7.73472 50.2 7.48037 50.3053 7.29283 50.4928C7.1053 50.6804 6.99994 50.9347 6.99994 51.2V55.08H5.43994C5.17472 55.08 4.92037 55.1853 4.73283 55.3728C4.5453 55.5604 4.43994 55.8147 4.43994 56.08C4.43994 56.3452 4.5453 56.5995 4.73283 56.7871C4.92037 56.9746 5.17472 57.08 5.43994 57.08H61.4399C61.7052 57.08 61.9595 56.9746 62.147 56.7871C62.3346 56.5995 62.4399 56.3452 62.4399 56.08C62.4399 55.8147 62.3346 55.5604 62.147 55.3728C61.9595 55.1853 61.7052 55.08 61.4399 55.08Z" fill="#514835"/>
<path d="M25.17 7.07983H15.87C15.6048 7.07983 15.3504 7.18519 15.1629 7.37273C14.9754 7.56026 14.87 7.81462 14.87 8.07983C14.87 8.34505 14.9754 8.5994 15.1629 8.78694C15.3504 8.97448 15.6048 9.07983 15.87 9.07983H16.54V24.1798C16.54 24.4451 16.6454 24.6994 16.8329 24.8869C17.0204 25.0745 17.2748 25.1798 17.54 25.1798H23.9C24.1652 25.1798 24.4196 25.0745 24.6071 24.8869C24.7946 24.6994 24.9 24.4451 24.9 24.1798V9.07983C25.1652 9.11564 25.4338 9.04462 25.6466 8.8824C25.8595 8.72018 25.9992 8.48005 26.035 8.21483C26.0708 7.94962 25.9998 7.68104 25.8376 7.46819C25.6753 7.25533 25.4352 7.11564 25.17 7.07983V7.07983ZM22.9 23.1798H18.54V9.07983H22.9V23.1798Z" fill="#A9B3B6"/>
<path d="M38.0799 7.07983H28.7899C28.5247 7.07983 28.2703 7.18519 28.0828 7.37273C27.8953 7.56026 27.7899 7.81462 27.7899 8.07983C27.7899 8.34505 27.8953 8.5994 28.0828 8.78694C28.2703 8.97448 28.5247 9.07983 28.7899 9.07983H29.2599V24.1798C29.2599 24.4451 29.3653 24.6994 29.5528 24.8869C29.7403 25.0745 29.9947 25.1798 30.2599 25.1798H36.6199C36.8851 25.1798 37.1395 25.0745 37.327 24.8869C37.5146 24.6994 37.6199 24.4451 37.6199 24.1798V9.07983H38.0799C38.3451 9.07983 38.5995 8.97448 38.787 8.78694C38.9746 8.5994 39.0799 8.34505 39.0799 8.07983C39.0799 7.81462 38.9746 7.56026 38.787 7.37273C38.5995 7.18519 38.3451 7.07983 38.0799 7.07983ZM35.6199 23.1798H31.2599V9.07983H35.6199V23.1798Z" fill="#A9B3B6"/>
<path d="M50.7999 7.07988H41.5099C41.2447 7.07988 40.9903 7.18524 40.8028 7.37278C40.6152 7.56031 40.5099 7.81467 40.5099 8.07988C40.5099 8.3451 40.6152 8.59945 40.8028 8.78699C40.9903 8.97453 41.2447 9.07988 41.5099 9.07988H41.9999V24.1799C41.9999 24.4451 42.1052 24.6995 42.2928 24.887C42.4803 25.0745 42.7347 25.1799 42.9999 25.1799H49.3599C49.6251 25.1799 49.8795 25.0745 50.067 24.887C50.2545 24.6995 50.3599 24.4451 50.3599 24.1799V9.07988H50.8199C51.0851 9.07723 51.3384 8.96933 51.5241 8.77992C51.7097 8.59051 51.8125 8.3351 51.8099 8.06988C51.8072 7.80467 51.6993 7.55137 51.5099 7.36571C51.3205 7.18005 51.0651 7.07723 50.7999 7.07988V7.07988ZM48.3399 23.1799H43.9999V9.07988H48.3599L48.3399 23.1799Z" fill="#A9B3B6"/>
<path d="M36.6199 23.1799H30.2599C29.9947 23.1799 29.7403 23.2853 29.5528 23.4728C29.3652 23.6604 29.2599 23.9147 29.2599 24.1799V40.0499C29.2599 41.1585 29.7003 42.2217 30.4842 43.0056C31.2681 43.7895 32.3313 44.2299 33.4399 44.2299C34.5485 44.2299 35.6117 43.7895 36.3956 43.0056C37.1795 42.2217 37.6199 41.1585 37.6199 40.0499V24.1799C37.6199 24.0486 37.594 23.9186 37.5438 23.7972C37.4935 23.6759 37.4199 23.5657 37.327 23.4728C37.2341 23.38 37.1239 23.3063 37.0026 23.2561C36.8812 23.2058 36.7512 23.1799 36.6199 23.1799Z" fill="#007BC1"/>
<path d="M50.34 24.1799C50.34 23.9147 50.2346 23.6604 50.0471 23.4728C49.8596 23.2853 49.6052 23.1799 49.34 23.1799H43C42.7348 23.1799 42.4804 23.2853 42.2929 23.4728C42.1054 23.6604 42 23.9147 42 24.1799V40.0499C42 41.1585 42.4404 42.2217 43.2243 43.0056C44.0082 43.7895 45.0714 44.2299 46.18 44.2299C47.2886 44.2299 48.3518 43.7895 49.1357 43.0056C49.9196 42.2217 50.36 41.1585 50.36 40.0499L50.34 24.1799Z" fill="#007BC1"/>
<path d="M23.8999 23.1799H17.5399C17.2747 23.1799 17.0203 23.2853 16.8328 23.4728C16.6453 23.6604 16.5399 23.9147 16.5399 24.1799V40.0499C16.5399 41.1585 16.9803 42.2217 17.7642 43.0056C18.5481 43.7895 19.6113 44.2299 20.7199 44.2299C21.8285 44.2299 22.8917 43.7895 23.6756 43.0056C24.4595 42.2217 24.8999 41.1585 24.8999 40.0499V24.1799C24.8999 23.9147 24.7946 23.6604 24.607 23.4728C24.4195 23.2853 24.1651 23.1799 23.8999 23.1799Z" fill="#007BC1"/>
</svg>
