<?xml version="1.0" encoding="UTF-8" standalone="no"?> <svg width="48" height="48" viewBox="0 0 48 48" fill="none" xmlns="http://www.w3.org/2000/svg">
<g clip-path="url(#clip0_44:1541)">
<path d="M12.311 43.9841C14.823 41.4721 14.551 38.6071 13.711 34.2931L12.889 29.8071C12.338 25.6511 12.617 21.0591 16.84 16.8361C21.063 12.6131 25.655 12.3361 29.811 12.8851C31.111 13.0661 32.367 13.3141 33.558 13.5561C33.807 13.6091 34.058 13.6611 34.297 13.7071C38.611 14.5511 41.476 14.8231 43.988 12.3071L47 15.3281C43.335 18.9931 39.1 18.8721 35.115 18.1931C34.286 18.0581 33.487 17.8931 32.702 17.7411C32.009 17.6051 31.322 17.4621 30.659 17.3411C26.715 16.6251 23.201 16.5041 19.852 19.8521C16.503 23.2001 16.625 26.7151 17.341 30.6591L18.193 35.1151C18.872 39.0971 18.993 43.3351 15.328 47.0001L12.311 43.9841Z" fill="#009AE0"/>
<path d="M13.7071 34.293C14.0075 35.6763 14.2034 37.0803 14.2931 38.493C15.3641 38.706 16.4801 38.918 17.6681 39.083C17.9781 39.124 18.2681 39.145 18.5621 39.175C18.563 37.8142 18.4395 36.4563 18.1931 35.118L17.6001 32H13.2861L13.7071 34.293Z" fill="#0081BD"/>
<path d="M1 32.6723C4.665 29.0073 8.9 29.1283 12.885 29.8073C13.714 29.9423 14.513 30.1073 15.298 30.2593C15.991 30.3953 16.678 30.5383 17.341 30.6593C21.285 31.3753 24.799 31.4963 28.148 28.1483C31.497 24.8003 31.375 21.2853 30.659 17.3413L35.115 18.1933C35.666 22.3493 35.387 26.9413 31.164 31.1643C26.941 35.3873 22.349 35.6643 18.193 35.1153C16.893 34.9343 15.637 34.6863 14.446 34.4443C14.197 34.3913 13.946 34.3393 13.707 34.2933C9.393 33.4493 6.528 33.1773 4.016 35.6933L1 32.6723Z" fill="#FD3730"/>
<path d="M30.6592 17.3413C30.9344 18.7086 31.0685 20.1006 31.0592 21.4953L31.2272 21.5273L32.5412 21.7853C33.1692 21.9083 33.8082 22.0333 34.4412 22.1373C34.7352 22.1873 35.0072 22.2243 35.2852 22.2653C35.3631 20.9056 35.3055 19.5416 35.1132 18.1933L30.6592 17.3413Z" fill="#D3241F"/>
<path d="M32.6723 1C29.0073 4.665 29.1283 8.9 29.8073 12.885L34.2933 13.707C33.4493 9.393 33.1773 6.528 35.6933 4.016L32.6723 1Z" fill="#FD3730"/>
<path d="M47.7072 14.6212C47.5196 14.4337 47.2653 14.3284 47.0002 14.3284C46.735 14.3284 46.4807 14.4337 46.2932 14.6212C42.9422 17.9732 39.0212 17.8472 35.2772 17.2062C34.6722 17.1062 34.0842 16.9922 33.5062 16.8792L32.2122 16.6242C31.7472 16.5312 31.2872 16.4392 30.8372 16.3582C27.0252 15.6582 22.9812 15.3102 19.1462 19.1462C15.7872 22.5032 15.6462 26.0202 16.1222 29.4032L14.8782 29.1582C14.5222 29.0882 14.1552 29.0242 13.7912 28.9582C13.4604 26.8942 13.6285 24.781 14.2812 22.7952C14.9339 20.8093 16.0524 19.0085 17.5431 17.5432C21.6722 13.4152 26.1971 13.4162 29.6681 13.8752C30.9251 14.0502 32.1292 14.2872 33.3472 14.5342C33.6032 14.5882 33.8592 14.6432 34.1022 14.6882C38.4692 15.5442 41.7862 15.9242 44.6902 13.0192C44.8783 12.8317 44.9843 12.5771 44.9848 12.3115C44.9852 12.0458 44.8802 11.7909 44.6927 11.6027C44.5051 11.4145 44.2506 11.3086 43.9849 11.3081C43.7193 11.3076 43.4643 11.4127 43.2762 11.6002C42.7495 12.14 42.1188 12.5673 41.4222 12.8562L35.1402 6.5782C35.4302 5.88124 35.8589 5.25048 36.4002 4.7242C36.5877 4.53603 36.6927 4.28108 36.6923 4.01543C36.6918 3.74979 36.5858 3.49521 36.3977 3.3077C36.3045 3.21486 36.1939 3.14127 36.0723 3.09115C35.9507 3.04103 35.8204 3.01535 35.6889 3.01559C35.4232 3.01605 35.1687 3.12203 34.9812 3.3102C32.4092 5.8812 32.4142 8.7762 33.0422 12.4372C32.2648 12.2832 31.4775 12.1422 30.6802 12.0142C30.1532 8.4922 30.2372 4.8492 33.3802 1.7072C33.5677 1.51956 33.6729 1.26512 33.6729 0.999849C33.6728 0.734579 33.5673 0.480211 33.3797 0.292703C33.192 0.105195 32.9376 -9.37008e-05 32.6723 6.25713e-08C32.407 9.38259e-05 32.1527 0.105562 31.9652 0.293203C28.3812 3.8772 28.1412 8.0102 28.6262 11.7512C26.3456 11.4572 24.0279 11.6999 21.8577 12.46C19.6875 13.2201 17.7249 14.4765 16.1262 16.1292C14.4731 17.7277 13.2165 19.6903 12.4564 21.8606C11.6963 24.0308 11.4538 26.3486 11.7482 28.6292C8.00815 28.1442 3.87415 28.3842 0.290151 31.9682C0.194641 32.0604 0.118459 32.1708 0.0660501 32.2928C0.0136411 32.4148 -0.0139451 32.546 -0.015099 32.6788C-0.0162528 32.8116 0.00904893 32.9433 0.0593298 33.0662C0.109611 33.1891 0.183864 33.3007 0.277757 33.3946C0.371649 33.4885 0.483301 33.5627 0.606198 33.613C0.729094 33.6633 0.860773 33.6886 0.993553 33.6875C1.12633 33.6863 1.25755 33.6587 1.37956 33.6063C1.50156 33.5539 1.6119 33.4777 1.70415 33.3822C5.05615 30.0312 8.97615 30.1592 12.7202 30.7972C13.3202 30.8972 13.9132 31.0112 14.4912 31.1242L15.7852 31.3792C16.2502 31.4722 16.7102 31.5642 17.1602 31.6452C20.9712 32.3452 25.0162 32.6922 28.8512 28.8572C32.2102 25.5002 32.3512 21.9832 31.8752 18.6002L33.1192 18.8452C33.4752 18.9152 33.8422 18.9792 34.2062 19.0452C34.5369 21.1092 34.3688 23.2224 33.7161 25.2083C33.0634 27.1941 31.9449 28.9949 30.4542 30.4602C26.3262 34.5892 21.8022 34.5892 18.3292 34.1282C17.0722 33.9532 15.8682 33.7162 14.6502 33.4692C14.3942 33.4152 14.1382 33.3602 13.8952 33.3152C9.52915 32.4602 6.21215 32.0802 3.30715 34.9842C3.11938 35.1721 3.01394 35.4269 3.01403 35.6926C3.01413 35.9582 3.11975 36.2129 3.30765 36.4007C3.49556 36.5885 3.75036 36.6939 4.01601 36.6938C4.28165 36.6937 4.53638 36.5881 4.72415 36.4002C5.25043 35.859 5.88119 35.4303 6.57815 35.1402L12.8602 41.4222C12.5701 42.1192 12.1414 42.7499 11.6002 43.2762C11.4126 43.4638 11.3074 43.7183 11.3074 43.9836C11.3075 44.2488 11.413 44.5032 11.6007 44.6907C11.7883 44.8782 12.0427 44.9835 12.308 44.9834C12.5733 44.9833 12.8276 44.8778 13.0152 44.6902C15.5872 42.1192 15.5822 39.2242 14.9542 35.5632C15.7308 35.7172 16.5182 35.8582 17.3162 35.9862C17.8432 39.5082 17.7592 43.1512 14.6162 46.2932C14.5206 46.3854 14.4445 46.4958 14.392 46.6178C14.3396 46.7398 14.3121 46.871 14.3109 47.0038C14.3097 47.1366 14.335 47.2683 14.3853 47.3912C14.4356 47.5141 14.5099 47.6257 14.6038 47.7196C14.6976 47.8135 14.8093 47.8877 14.9322 47.938C15.0551 47.9883 15.1868 48.0136 15.3196 48.0125C15.4523 48.0113 15.5836 47.9837 15.7056 47.9313C15.8276 47.8789 15.9379 47.8027 16.0302 47.7072C19.6142 44.1232 19.8542 39.9902 19.3692 36.2492C21.6497 36.5432 23.9674 36.3005 26.1376 35.5404C28.3078 34.7803 30.2704 33.5239 31.8692 31.8712C33.522 30.2725 34.7785 28.3099 35.5386 26.1397C36.2987 23.9695 36.5413 21.6518 36.2472 19.3712C39.9882 19.8582 44.1222 19.6172 47.7052 16.0322C47.892 15.8451 47.9971 15.5915 47.9974 15.3271C47.9978 15.0627 47.8934 14.8089 47.7072 14.6212V14.6212ZM39.0222 13.2892C37.7217 13.2597 36.4267 13.1118 35.1532 12.8472C34.8883 11.5733 34.74 10.278 34.7102 8.9772L39.0222 13.2892ZM29.7922 18.2082C30.0619 19.6311 30.1229 21.0857 29.9732 22.5262L25.4732 18.0262C26.914 17.8771 28.3689 17.9384 29.7922 18.2082V18.2082ZM19.8871 21.3002L26.6982 28.1102C26.1056 28.6137 25.4464 29.033 24.7392 29.3562L18.6392 23.2562C18.9635 22.5501 19.3834 21.8919 19.8871 21.3002V21.3002ZM18.2082 29.7892C17.9384 28.3666 17.8774 26.9124 18.0272 25.4722L22.5272 29.9722C21.0863 30.1221 19.6314 30.0612 18.2082 29.7912V29.7892ZM28.1132 26.7002L21.3001 19.8882C21.8927 19.3847 22.5519 18.9654 23.2592 18.6422L29.3591 24.7422C29.0356 25.4489 28.6163 26.1078 28.1132 26.7002V26.7002ZM8.97715 34.7112C10.2779 34.7401 11.5733 34.8881 12.8472 35.1532C13.112 36.4271 13.2603 37.7224 13.2902 39.0232L8.97715 34.7112Z" fill="black"/>
</g>
<defs>
<clipPath id="clip0_44:1541">
<rect width="48" height="48" fill="white"/>
</clipPath>
</defs>
</svg>
